<?xml version="1.0" encoding="UTF-8"?>
<svg id="_图层_2" data-name="图层 2" xmlns="http://www.w3.org/2000/svg" xmlns:xlink="http://www.w3.org/1999/xlink" viewBox="0 0 1920 1080">
  <defs>
    <style>
      .cls-1 {
        fill: #ffaf78;
      }

      .cls-2 {
        fill: none;
      }

      .cls-3 {
        fill: url(#_10_dpi_10_2);
      }
    </style>
    <pattern id="_10_dpi_10_2" data-name="10 dpi 10% 2" x="0" y="0" width="28.8" height="28.8" patternTransform="translate(-2482.99 -4870.75) scale(.47 .5)" patternUnits="userSpaceOnUse" viewBox="0 0 28.8 28.8">
      <g>
        <rect class="cls-2" y="0" width="28.8" height="28.8"/>
        <g>
          <circle class="cls-1" cx="28.8" cy="28.8" r=".72"/>
          <path class="cls-1" d="M14.4,29.52c.4,0,.72-.32.72-.72s-.32-.72-.72-.72-.72.32-.72.72.32.72.72.72Z"/>
          <path class="cls-1" d="M28.8,15.12c.4,0,.72-.32.72-.72s-.32-.72-.72-.72-.72.32-.72.72.32.72.72.72Z"/>
          <path class="cls-1" d="M14.4,15.12c.4,0,.72-.32.72-.72s-.32-.72-.72-.72-.72.32-.72.72.32.72.72.72Z"/>
          <path class="cls-1" d="M7.2,22.32c.4,0,.72-.32.72-.72s-.32-.72-.72-.72-.72.32-.72.72.32.72.72.72Z"/>
          <path class="cls-1" d="M21.6,22.32c.4,0,.72-.32.72-.72s-.32-.72-.72-.72-.72.32-.72.72.32.72.72.72Z"/>
          <path class="cls-1" d="M7.2,7.92c.4,0,.72-.32.72-.72s-.32-.72-.72-.72-.72.32-.72.72.32.72.72.72Z"/>
          <path class="cls-1" d="M21.6,7.92c.4,0,.72-.32.72-.72s-.32-.72-.72-.72-.72.32-.72.72.32.72.72.72Z"/>
        </g>
        <g>
          <circle class="cls-1" cx="0" cy="28.8" r=".72"/>
          <path class="cls-1" d="M0,15.12c.4,0,.72-.32.72-.72s-.32-.72-.72-.72-.72.32-.72.72.32.72.72.72Z"/>
        </g>
        <g>
          <path class="cls-1" d="M28.8.72c.4,0,.72-.32.72-.72s-.32-.72-.72-.72-.72.32-.72.72.32.72.72.72Z"/>
          <path class="cls-1" d="M14.4.72c.4,0,.72-.32.72-.72s-.32-.72-.72-.72-.72.32-.72.72.32.72.72.72Z"/>
        </g>
        <path class="cls-1" d="M0,.72c.4,0,.72-.32.72-.72s-.32-.72-.72-.72-.72.32-.72.72.32.72.72.72Z"/>
      </g>
    </pattern>
  </defs>
  <g id="_图层_1-2" data-name="图层 1">
    <rect class="cls-3" width="1920" height="1080"/>
  </g>
</svg>